# Blender v2.78 (sub 0) OBJ File: ''
# www.blender.org
mtllib cloud1.mtl
o cloud1_Icosphere.032
v -0.256031 -0.931340 -0.754513
v -0.847144 -0.163503 -1.038055
v -0.046548 -0.284517 -3.928643
v 0.558832 -0.232540 -0.338427
v 0.276472 -0.883989 1.860259
v -1.263064 -0.653975 1.349543
v -0.445147 0.485098 -1.535368
v 0.405619 0.456147 -1.208240
v 1.427962 0.300647 1.358959
v -0.236388 0.103324 3.417197
v -1.486603 0.352352 0.514300
v -0.111667 1.018394 0.030848
v -0.139205 -0.533281 -2.897165
v -0.625515 -0.603980 -1.211610
v -0.458724 -0.323123 -3.174139
v -0.971227 -0.388592 0.414241
v -0.558517 -0.698032 0.801812
v 0.192811 -0.667154 -0.832136
v 0.273684 -0.368837 -2.923529
v 0.148887 -0.640027 0.950886
v 1.007626 -0.901010 1.150168
v -0.771130 -0.999518 1.873863
v -1.077469 0.090539 0.080001
v -1.540446 -0.134842 0.962502
v -0.244055 -0.023596 -3.366657
v -0.707506 0.187675 -1.595664
v 0.580388 0.132936 -1.166125
v 0.207170 -0.052413 -3.242862
v 0.843026 -0.296626 1.979006
v 1.568275 -0.310140 0.979606
v -1.150925 -0.215961 2.184364
v -0.052283 -0.153344 3.450371
v -0.793532 0.564881 -0.568111
v 0.006211 0.477607 -1.744868
v 1.253877 0.390110 0.161265
v 0.294701 0.084403 3.698533
v -1.516759 0.595018 1.206880
v -0.216690 0.866274 -0.787884
v -0.895698 0.796191 0.234154
v 0.511130 0.954183 -0.810189
v 0.724646 1.064372 0.371536
v -0.487254 1.031920 1.138506
vn -0.5148 -0.8374 -0.1836
vn -0.9055 -0.4007 -0.1395
vn 0.4854 -0.8640 -0.1340
vn 0.5104 -0.8596 0.0257
vn 0.0478 -0.9864 0.1572
vn -0.9459 -0.2984 -0.1271
vn -0.8390 0.3172 -0.4421
vn 0.9599 -0.2648 -0.0919
vn 0.5339 -0.6292 0.5648
vn -0.7665 -0.5206 0.3761
vn -0.9758 0.0506 -0.2125
vn 0.1597 0.9156 -0.3690
vn 0.4059 -0.8399 -0.3603
vn 0.6037 -0.6697 0.4325
vn -0.9181 -0.2865 0.2737
vn -0.5224 0.8136 -0.2553
vn 0.7739 0.2872 -0.5645
vn 0.7749 0.6287 -0.0657
vn -0.1733 0.9052 0.3880
vn -0.6573 0.7018 -0.2745
vn -0.2979 0.9480 -0.1126
vn -0.3934 0.9173 -0.0614
vn -0.3384 0.8578 0.3868
vn -0.0439 0.9987 -0.0271
vn 0.1635 0.9404 0.2981
vn 0.4711 0.8278 0.3047
vn -0.0183 0.9958 -0.0896
vn 0.7414 0.6424 -0.1939
vn 0.8328 0.2271 -0.5049
vn -0.1233 0.9784 -0.1660
vn -0.1220 0.9093 -0.3977
vn -0.1731 0.8978 -0.4049
vn -0.3027 0.9433 -0.1364
vn -0.5286 0.7954 -0.2966
vn -0.6584 0.6968 -0.2847
vn -0.9967 0.0531 -0.0620
vn -0.9518 -0.0692 0.2988
vn -0.8052 0.2719 0.5269
vn -0.4627 -0.2209 0.8586
vn 0.3744 -0.8729 0.3128
vn 0.8255 -0.4351 0.3596
vn 0.9498 0.2905 -0.1164
vn 0.8949 -0.1050 -0.4337
vn 0.7979 0.3694 -0.4764
vn 0.3951 0.8814 -0.2588
vn 0.1457 0.9387 -0.3126
vn -0.1129 0.9541 -0.2774
vn -0.6840 0.6644 -0.3012
vn -0.9346 0.3014 -0.1889
vn -0.7778 -0.2937 -0.5557
vn -0.6793 -0.4084 0.6097
vn -0.6273 -0.5301 0.5705
vn 0.1044 -0.8953 0.4330
vn 0.7954 -0.1773 0.5796
vn 0.6928 -0.5102 0.5096
vn 0.5666 -0.6743 -0.4736
vn 0.8729 0.4464 -0.1967
vn 0.9835 0.0260 -0.1791
vn 0.9437 -0.1148 -0.3103
vn -0.6968 0.6677 -0.2620
vn -0.8564 0.4363 -0.2762
vn -0.9781 0.0952 -0.1850
vn -0.7767 -0.3778 -0.5040
vn -0.7051 -0.5042 -0.4987
vn -0.6605 -0.6425 -0.3884
vn -0.2996 -0.9013 -0.3129
vn 0.1303 -0.9609 -0.2444
vn 0.1020 -0.9571 -0.2711
vn -0.2364 -0.9463 -0.2207
vn -0.2923 -0.9563 0.0073
vn 0.8730 -0.2889 -0.3929
vn 0.7940 -0.6054 -0.0557
vn 0.3609 -0.9251 -0.1180
vn 0.3529 -0.9163 -0.1893
vn -0.3278 -0.8771 -0.3511
vn -0.5888 -0.8081 -0.0182
vn -0.6536 -0.7567 -0.0136
vn -0.3722 -0.8941 -0.2491
vn -0.4391 -0.8834 -0.1637
vn -0.9054 -0.4026 -0.1346
usemtl Material.001
s off
f 1//1 14//1 13//1
f 2//2 14//2 16//2
f 1//3 13//3 18//3
f 1//4 18//4 20//4
f 1//5 20//5 17//5
f 2//6 16//6 23//6
f 3//7 15//7 25//7
f 4//8 19//8 27//8
f 5//9 21//9 29//9
f 6//10 22//10 31//10
f 2//11 23//11 26//11
f 3//12 25//12 28//12
f 4//13 27//13 30//13
f 5//14 29//14 32//14
f 6//15 31//15 24//15
f 7//16 33//16 38//16
f 8//17 34//17 40//17
f 9//18 35//18 41//18
f 10//19 36//19 42//19
f 11//20 37//20 39//20
f 39//21 42//21 12//21
f 39//22 37//22 42//22
f 37//23 10//23 42//23
f 42//24 41//24 12//24
f 42//25 36//25 41//25
f 36//26 9//26 41//26
f 41//27 40//27 12//27
f 41//28 35//28 40//28
f 35//29 8//29 40//29
f 40//30 38//30 12//30
f 40//31 34//31 38//31
f 34//32 7//32 38//32
f 38//33 39//33 12//33
f 38//34 33//34 39//34
f 33//35 11//35 39//35
f 24//36 37//36 11//36
f 24//37 31//37 37//37
f 31//38 10//38 37//38
f 32//39 36//39 10//39
f 32//40 29//40 36//40
f 29//41 9//41 36//41
f 30//42 35//42 9//42
f 30//43 27//43 35//43
f 27//44 8//44 35//44
f 28//45 34//45 8//45
f 28//46 25//46 34//46
f 25//47 7//47 34//47
f 26//48 33//48 7//48
f 26//49 23//49 33//49
f 23//50 11//50 33//50
f 31//51 32//51 10//51
f 31//52 22//52 32//52
f 22//53 5//53 32//53
f 29//54 30//54 9//54
f 29//55 21//55 30//55
f 21//56 4//56 30//56
f 27//57 28//57 8//57
f 27//58 19//58 28//58
f 19//59 3//59 28//59
f 25//60 26//60 7//60
f 25//61 15//61 26//61
f 15//62 2//62 26//62
f 23//63 24//63 11//63
f 23//64 16//64 24//64
f 16//65 6//65 24//65
f 17//66 22//66 6//66
f 17//67 20//67 22//67
f 20//68 5//68 22//68
f 20//69 21//69 5//69
f 20//70 18//70 21//70
f 18//71 4//71 21//71
f 18//72 19//72 4//72
f 18//73 13//73 19//73
f 13//74 3//74 19//74
f 16//75 17//75 6//75
f 16//76 14//76 17//76
f 14//77 1//77 17//77
f 13//78 15//78 3//78
f 13//79 14//79 15//79
f 14//80 2//80 15//80
