# Blender v2.78 (sub 0) OBJ File: ''
# www.blender.org
mtllib tree2.mtl
o Cylinder.001_Cylinder.007
v -0.245614 0.086753 0.493728
v -0.133472 0.086753 1.071816
v -0.578040 0.086753 1.457977
v -1.134750 0.086753 1.266051
v -1.246892 0.086753 0.687964
v -0.802324 0.086753 0.301802
v -0.469763 9.618944 0.688429
v -0.415060 9.618944 0.970420
v -0.631920 9.618944 1.158790
v -0.903483 9.618944 1.065168
v -0.958186 9.618944 0.783177
v -0.741326 9.618944 0.594807
v -0.234247 4.138119 0.879575
v -0.299518 3.769588 0.528282
v -0.494544 4.137910 1.105165
v -0.819646 4.145417 0.992345
v -0.885867 4.137909 0.654656
v -0.655032 3.478946 0.411795
v -0.624912 4.154840 0.427253
v -0.076003 5.709567 -0.559618
v -0.310606 5.572134 -0.699321
v -0.008242 5.227240 -0.998068
v 0.251022 5.379118 -0.843680
v 0.413891 7.071733 -0.451797
v 0.154627 6.919854 -0.606185
v 0.086866 7.402181 -0.167736
v -0.147737 7.264749 -0.307438
vn 0.0000 -1.0000 0.0000
vn 0.0000 1.0000 -0.0000
vn 0.6546 0.0521 0.7542
vn -0.3247 0.0887 0.9417
vn -0.9778 0.0887 0.1897
vn -0.6528 0.0524 -0.7558
vn 0.3159 0.0152 -0.9487
vn 0.9780 0.0349 -0.2056
vn 0.9810 0.0157 -0.1935
vn 0.6553 0.0091 0.7553
vn -0.3271 -0.0175 0.9448
vn -0.9813 -0.0175 0.1917
vn -0.6566 0.0091 -0.7542
vn -0.6580 0.0465 -0.7516
vn 0.3306 0.0357 -0.9431
vn -0.1059 0.5593 0.8222
vn -0.8852 -0.0960 -0.4552
vn 0.6432 -0.6113 -0.4611
vn 0.7651 0.2456 0.5952
vn 0.4322 0.1637 -0.8868
vn 0.4859 -0.2412 0.8401
vn -0.5305 0.2393 -0.8132
vn -0.4322 -0.1637 0.8868
vn 0.0428 0.6753 -0.7363
usemtl brown.004
s off
f 1//1 2//1 3//1
f 7//2 9//2 8//2
f 1//1 3//1 4//1
f 7//2 10//2 9//2
f 1//1 4//1 5//1
f 7//2 11//2 10//2
f 1//1 5//1 6//1
f 7//2 12//2 11//2
f 15//3 3//3 2//3 13//3
f 16//4 4//4 3//4 15//4
f 5//5 4//5 16//5 17//5
f 6//6 5//6 17//6 18//6
f 18//7 14//7 1//7 6//7
f 13//8 14//8 7//8 8//8
f 13//9 2//9 1//9 14//9
f 15//10 13//10 8//10 9//10
f 16//11 15//11 9//11 10//11
f 11//12 17//12 16//12 10//12
f 12//13 19//13 17//13 11//13
f 17//14 19//14 18//14
f 19//15 12//15 7//15 14//15
f 20//16 21//16 19//16 14//16
f 21//17 22//17 18//17 19//17
f 23//18 14//18 18//18 22//18
f 14//19 23//19 20//19
f 25//20 24//20 23//20 22//20
f 24//21 26//21 20//21 23//21
f 25//22 22//22 21//22 27//22
f 27//23 21//23 20//23 26//23
f 25//24 27//24 26//24 24//24
o Icosphere.001_Icosphere.015
v 0.133175 6.251878 0.388000
v 1.605896 8.494259 1.048899
v -1.232863 7.318071 0.371353
v -1.283185 7.110560 -1.177332
v 0.465561 6.788526 -1.923064
v 1.746761 6.914892 -0.498020
v -0.093715 11.591021 0.251700
v -1.059856 11.399202 -0.957761
v 1.769646 10.878175 -2.164446
v 1.451946 11.356649 0.256513
v 0.553731 12.062217 -1.843782
v -0.207917 8.619292 1.385589
v -1.528783 9.370959 0.276744
v -0.918991 9.819837 -2.504680
v 1.232283 8.555046 -2.573939
v 2.454512 9.859171 -1.049264
v -1.126598 6.852572 0.978533
v -0.331563 7.996766 2.840835
v -2.439837 8.596058 2.386364
v -2.648666 8.848821 -0.533938
v 1.174926 10.406343 -1.322001
v 2.150232 10.319981 0.986786
v -2.538614 11.775957 3.042652
v -3.513920 11.862319 0.733865
v -1.032125 14.185534 -1.120184
v 1.076150 13.586243 -0.665714
v 1.284978 13.333479 2.254588
v -0.237090 15.329728 0.742117
v 1.542654 8.284569 0.494113
v 1.607225 9.864180 2.445023
v -0.587256 7.757512 -1.053676
v -0.412223 10.634909 3.737913
v -2.970913 12.318121 -0.724372
v -0.951465 11.547392 -2.017262
v -0.776432 14.424788 2.774326
v -2.906342 13.897731 1.226538
vn -0.3277 -0.4066 0.8528
vn 0.1453 -0.3663 0.9191
vn 0.5641 -0.5516 0.6145
vn -0.6114 -0.7814 0.1246
vn -0.2793 -0.9257 -0.2551
vn 0.2894 -0.9407 -0.1768
vn -0.6619 -0.0610 0.7471
vn -0.4916 0.3269 0.8072
vn -0.9774 0.0287 -0.2096
vn -0.9748 0.1057 -0.1967
vn -0.9888 -0.1402 0.0509
vn -0.1874 -0.2670 -0.9453
vn -0.4213 -0.3527 -0.8355
vn 0.8521 -0.2868 -0.4378
vn 0.8120 -0.0861 -0.5773
vn 0.6676 -0.4947 -0.5563
vn 0.0508 0.3543 0.9337
vn 0.1937 0.2714 0.9428
vn -0.7234 0.4733 0.5028
vn 0.0620 0.1593 -0.9853
vn 0.8677 0.1754 0.4651
vn 0.9470 -0.1776 0.2675
vn 0.1440 0.9550 0.2592
vn -0.3251 0.9392 0.1107
vn -0.5641 0.5516 -0.6145
vn 0.0137 0.2744 -0.9615
vn 0.8305 0.5570 -0.0011
vn 0.6896 0.7223 -0.0523
vn -0.3359 -0.7318 0.5930
vn 0.6636 -0.5920 0.4574
vn 0.9137 -0.3301 0.2370
vn 0.4927 -0.8193 0.2930
vn -0.5033 -0.7318 -0.4595
vn -0.7969 -0.6041 0.0047
vn 0.5934 -0.4616 -0.6594
vn 0.4150 -0.8670 -0.2759
vn 0.4409 -0.2768 0.8538
vn 0.5627 0.0973 0.8209
vn -0.3987 -0.1972 0.8956
vn -0.2850 -0.3164 0.9048
vn -0.9205 -0.1061 -0.3760
vn -0.9553 -0.2924 0.0430
vn 0.1919 -0.2245 -0.9554
vn -0.3641 -0.2622 -0.8937
vn 0.9044 -0.1759 -0.3886
vn 0.9173 0.1076 -0.3835
vn -0.1919 0.2245 0.9554
vn 0.3641 0.2622 0.8937
vn -0.9044 0.1759 0.3886
vn -0.9173 -0.1076 0.3835
vn -0.4409 0.2768 -0.8538
vn -0.5627 -0.0973 -0.8209
vn 0.3987 0.1972 -0.8956
vn 0.2850 0.3164 -0.9048
vn 0.9205 0.1061 0.3760
vn 0.9553 0.2924 -0.0430
vn -0.4150 0.8670 0.2759
vn -0.5934 0.4616 0.6594
vn -0.6636 0.5920 -0.4574
vn -0.4927 0.8193 -0.2930
vn -0.9137 0.3301 -0.2370
vn 0.3359 0.7318 -0.5930
vn 0.5033 0.7318 0.4595
vn 0.7969 0.6041 -0.0047
usemtl yellow.004
s off
f 30//25 28//25 39//25
f 29//26 39//26 28//26
f 28//27 33//27 29//27
f 31//28 28//28 30//28
f 32//29 28//29 31//29
f 33//30 28//30 32//30
f 40//31 30//31 39//31
f 34//32 40//32 39//32
f 31//33 40//33 41//33
f 35//34 41//34 40//34
f 40//35 31//35 30//35
f 32//36 41//36 42//36
f 41//37 32//37 31//37
f 33//38 42//38 43//38
f 36//39 43//39 42//39
f 42//40 33//40 32//40
f 37//41 34//41 39//41
f 39//42 29//42 37//42
f 34//43 35//43 40//43
f 41//44 36//44 42//44
f 43//45 37//45 29//45
f 43//46 29//46 33//46
f 38//47 34//47 37//47
f 38//48 35//48 34//48
f 41//49 35//49 38//49
f 38//50 36//50 41//50
f 43//51 36//51 37//51
f 38//52 37//52 36//52
f 44//53 45//53 46//53
f 45//54 56//54 57//54
f 49//55 57//55 56//55
f 45//56 44//56 56//56
f 58//57 44//57 47//57
f 46//58 47//58 44//58
f 48//59 56//59 58//59
f 56//60 44//60 58//60
f 59//61 45//61 57//61
f 54//62 59//62 57//62
f 46//63 59//63 50//63
f 59//64 46//64 45//64
f 47//65 51//65 60//65
f 51//66 47//66 46//66
f 61//67 48//67 58//67
f 61//68 58//68 47//68
f 56//69 48//69 49//69
f 53//70 49//70 48//70
f 62//71 50//71 59//71
f 54//72 62//72 59//72
f 51//73 50//73 63//73
f 50//74 51//74 46//74
f 60//75 52//75 61//75
f 60//76 61//76 47//76
f 48//77 61//77 53//77
f 52//78 53//78 61//78
f 57//79 49//79 54//79
f 53//80 54//80 49//80
f 55//81 63//81 62//81
f 62//82 63//82 50//82
f 60//83 63//83 52//83
f 55//84 52//84 63//84
f 63//85 60//85 51//85
f 53//86 52//86 55//86
f 54//87 55//87 62//87
f 55//88 54//88 53//88
