# Blender v2.78 (sub 0) OBJ File: ''
# www.blender.org
mtllib tree9.mtl
o Cylinder.008_Cylinder.005
v 1.981598 -0.000265 0.341639
v 1.731486 -0.000265 1.464462
v 0.634037 -0.000265 1.809270
v -0.213300 -0.000265 1.031255
v 0.036812 -0.000265 -0.091567
v 1.134261 -0.000265 -0.436375
v 1.494597 4.516294 0.494650
v 1.355475 4.516294 1.119212
v 0.745026 4.516294 1.311010
v 0.273701 4.516294 0.878245
v 0.412823 4.516294 0.253683
v 1.023271 4.516294 0.061885
v 0.884149 -0.000265 0.686447
v 1.946751 2.075048 1.157783
v 2.139607 2.075048 0.291994
v 1.100527 2.075048 1.423659
v 0.447160 2.075048 0.823745
v 0.640016 2.075048 -0.042044
v 1.486240 2.075048 -0.307920
v 1.651113 3.112705 1.138497
v 1.817102 3.112705 0.393322
v 0.922777 3.112705 1.367334
v 0.360430 3.112705 0.850995
v 0.526420 3.112705 0.105819
v 1.254755 3.112705 -0.123017
v 1.544415 3.487202 1.131537
v 1.700708 3.487202 0.429892
v 0.858625 3.487202 1.347006
v 0.329129 3.487202 0.860830
v 0.485422 3.487202 0.159184
v 1.171211 3.487202 -0.056285
v -0.674098 4.033076 2.472987
v -0.854319 4.033076 2.307511
v -0.843665 3.905612 2.304163
v -0.652263 3.905612 2.479906
v 1.345263 5.381453 0.621572
v 0.938654 5.381453 0.248230
v 0.412027 5.381453 0.413692
v 0.292008 5.381453 0.952496
v 0.698616 5.381453 1.325838
v 1.225243 5.381453 1.160376
v 1.201918 5.708712 1.196188
v 1.294376 5.616512 0.699701
v 0.698004 5.784696 1.326776
v 0.286549 5.768480 0.960876
v 0.379007 5.676280 0.464389
v 0.882920 5.600297 0.333801
v 1.086087 5.611599 0.242908
v 1.415928 5.624599 0.536229
v 1.130766 5.436165 0.174310
v 1.456721 5.436165 0.473597
v 1.306163 3.563334 -0.566904
v 1.702711 3.563334 -0.202799
v 1.368730 3.343226 -0.616881
v 1.789880 3.343226 -0.230187
v 0.127067 5.572445 0.414050
v 0.100453 5.720851 0.454912
v 0.025931 5.767262 0.855083
v 0.030331 5.572445 0.848328
v 1.216136 6.206465 0.775860
v 0.832810 6.191358 0.434976
v 0.363348 6.262147 0.556636
v 0.277211 6.348042 1.019180
v 0.660536 6.363150 1.360064
v 1.129999 6.292360 1.238404
v 0.746673 6.277253 0.897520
vn 0.0000 -1.0000 -0.0000
vn 0.9738 -0.0690 0.2169
vn 0.2980 0.1092 0.9483
vn -0.6498 0.2775 0.7077
vn -0.9377 0.2775 -0.2089
vn -0.2980 0.1092 -0.9483
vn 0.6747 -0.0690 -0.7348
vn 0.9394 0.2715 0.2093
vn 0.2982 0.1026 0.9490
vn -0.6744 -0.0757 0.7345
vn -0.9733 -0.0757 -0.2168
vn -0.2982 0.1026 -0.9490
vn 0.6509 0.2715 -0.7089
vn 0.9603 0.1789 0.2139
vn 0.2991 0.0663 0.9519
vn -0.6755 -0.0488 0.7357
vn -0.9749 -0.0488 -0.2172
vn -0.2991 0.0663 -0.9519
vn 0.6654 0.1789 -0.7247
vn 0.1899 0.9598 -0.2068
vn -0.7821 -0.0491 -0.6213
vn 0.6192 0.1479 0.7712
vn -0.2623 -0.9218 0.2856
vn 0.6599 0.2193 -0.7187
vn -0.2952 0.1735 -0.9396
vn -0.9753 0.0393 -0.2173
vn 0.2997 -0.0003 0.9540
vn 0.9671 0.1353 0.2154
vn 0.9772 0.0899 0.1925
vn 0.2732 -0.0394 0.9611
vn -0.6702 -0.0139 0.7420
vn -0.2561 0.2063 -0.9444
vn -0.0501 0.9987 0.0121
vn -0.4075 0.2407 -0.8809
vn 0.8028 -0.0242 0.5957
vn 0.1924 -0.9587 -0.2095
vn 0.6127 0.3915 -0.6866
vn -0.1087 0.9870 0.1184
vn -0.9418 -0.1751 -0.2869
vn 0.9464 0.3177 0.0586
vn 0.3134 -0.8862 -0.3413
vn 0.6365 0.3383 -0.6932
vn 0.1055 0.2148 -0.9710
vn 0.1075 0.9854 -0.1323
vn -0.3823 -0.0305 0.9235
vn -0.5526 -0.8243 -0.1231
vn -0.9784 -0.0610 -0.1974
vn 0.6495 0.1815 -0.7384
vn -0.2276 0.1455 -0.9628
vn -0.9830 0.0026 -0.1835
vn -0.6602 -0.0857 0.7462
vn 0.2450 -0.0399 0.9687
vn 0.9807 0.1091 0.1624
vn 0.1058 0.9810 -0.1625
usemtl Material.004
s off
f 13//1 1//1 2//1
f 13//1 2//1 3//1
f 13//1 3//1 4//1
f 13//1 4//1 5//1
f 13//1 5//1 6//1
f 6//1 1//1 13//1
f 1//2 15//2 14//2 2//2
f 2//3 14//3 16//3 3//3
f 3//4 16//4 17//4 4//4
f 4//5 17//5 18//5 5//5
f 5//6 18//6 19//6 6//6
f 15//7 1//7 6//7 19//7
f 15//8 21//8 20//8 14//8
f 14//9 20//9 22//9 16//9
f 16//10 22//10 23//10 17//10
f 17//11 23//11 24//11 18//11
f 18//12 24//12 25//12 19//12
f 21//13 15//13 19//13 25//13
f 21//8 27//8 26//8 20//8
f 27//14 7//14 8//14 26//14
f 20//9 26//9 28//9 22//9
f 26//15 8//15 9//15 28//15
f 28//16 9//16 10//16 29//16
f 23//11 29//11 30//11 24//11
f 29//17 10//17 11//17 30//17
f 24//12 30//12 31//12 25//12
f 30//18 11//18 12//18 31//18
f 7//19 27//19 31//19 12//19
f 28//20 29//20 33//20 32//20
f 29//21 23//21 34//21 33//21
f 22//22 28//22 32//22 35//22
f 23//23 22//23 35//23 34//23
f 35//10 32//10 33//10 34//10
f 7//24 12//24 37//24 36//24
f 12//25 11//25 38//25 37//25
f 11//26 10//26 39//26 38//26
f 10//16 9//16 40//16 39//16
f 9//27 8//27 41//27 40//27
f 8//28 7//28 36//28 41//28
f 41//29 36//29 43//29 42//29
f 40//30 41//30 42//30 44//30
f 39//31 40//31 44//31 45//31
f 37//32 38//32 46//32 47//32
f 47//33 43//33 49//33 48//33
f 37//34 47//34 48//34 50//34
f 43//35 36//35 51//35 49//35
f 36//36 37//36 50//36 51//36
f 51//37 50//37 48//37 49//37
f 31//38 27//38 53//38 52//38
f 25//39 31//39 52//39 54//39
f 27//40 21//40 55//40 53//40
f 21//41 25//41 54//41 55//41
f 53//42 55//42 54//42 52//42
f 46//43 38//43 56//43 57//43
f 45//44 46//44 57//44 58//44
f 39//45 45//45 58//45 59//45
f 38//46 39//46 59//46 56//46
f 56//47 59//47 58//47 57//47
f 43//48 47//48 61//48 60//48
f 47//49 46//49 62//49 61//49
f 46//50 45//50 63//50 62//50
f 45//51 44//51 64//51 63//51
f 44//52 42//52 65//52 64//52
f 42//53 43//53 60//53 65//53
f 66//54 60//54 61//54
f 66//54 61//54 62//54
f 66//54 62//54 63//54
f 66//54 63//54 64//54
f 66//54 64//54 65//54
f 66//54 65//54 60//54
o Icosphere.007_Icosphere.010
v 2.693473 2.849460 -0.811689
v 3.880810 4.097392 -0.951248
v 2.073933 3.747316 0.517321
v 1.192350 3.395694 -0.692588
v 1.647476 3.395680 -2.113921
v 3.051498 3.395680 -2.077106
v 3.127247 5.490778 0.184721
v 2.704206 5.354796 -2.613006
v 3.475891 5.737252 -1.424990
v 1.659208 6.217016 -0.463761
v 0.787431 5.035553 -1.166331
v 1.502576 5.106093 -2.381742
v 0.598074 2.937199 4.404706
v 2.540356 4.646435 4.660262
v -0.745433 4.003568 6.352303
v -2.559886 4.086326 4.655261
v -1.602424 4.086298 1.665160
v 1.671905 4.003573 2.271677
v 1.286610 9.012365 6.104585
v -1.667077 9.012365 6.027138
v -2.856170 8.452229 3.109483
v -0.117972 9.012372 1.189028
v 2.244072 9.012337 3.114484
v -0.913888 10.161465 3.365039
v 1.591438 5.414118 6.668009
v 1.245115 5.414118 0.912065
v 3.096365 6.743958 3.689070
v -0.963593 6.354754 7.268432
v -3.412179 6.354706 4.080675
v -1.363475 6.354755 0.622326
v 1.613295 3.969862 -0.451838
v 3.813453 5.744809 2.858603
v -0.510109 5.744800 4.664999
v -3.482308 5.744871 0.795709
v -0.995485 5.744800 -3.402039
v 4.771839 6.814833 -1.261762
v 1.931106 14.219488 4.518117
v -3.836217 13.149456 2.377839
v -2.877832 14.219481 -1.742525
v 1.445729 14.219488 -3.548922
v 4.417929 14.219419 0.320368
v -0.677674 15.994427 1.567916
v 2.102997 6.803061 4.983171
v -2.935526 6.803071 3.558500
v -3.270734 6.803071 -2.012710
v 1.560620 6.803061 -4.031231
v 5.299162 9.982144 -1.460470
v 5.506330 9.982144 1.982699
v 3.788957 9.982144 4.881759
v 0.803020 9.982144 6.129282
v -2.310955 9.982144 5.248777
v -4.363542 9.982144 2.576548
v -4.570710 9.982144 -0.866621
v -2.853335 9.982144 -3.765681
v 0.132601 9.982144 -5.013205
v 3.246576 9.982144 -4.132700
v 4.206355 13.161219 3.128788
v -0.624999 13.161226 5.147309
v -1.167376 13.161226 -3.867094
v 3.871147 13.161219 -2.442422
vn 0.6017 -0.5031 0.6204
vn 0.7157 -0.6917 -0.0961
vn -0.2743 -0.8513 0.4473
vn -0.3476 -0.9310 -0.1113
vn 0.0103 -0.9191 -0.3938
vn 0.6395 -0.2475 0.7278
vn -0.8042 -0.0270 0.5938
vn -0.7309 0.1424 0.6675
vn -0.8481 -0.1514 -0.5078
vn -0.9062 -0.3076 -0.2902
vn 0.0253 -0.2596 -0.9654
vn 0.9223 0.2986 0.2455
vn -0.2446 0.3222 0.9145
vn -0.1532 -0.1655 -0.9742
vn 0.8311 0.0451 -0.5543
vn 0.8100 -0.0168 -0.5862
vn 0.3546 0.9097 0.2161
vn -0.2645 0.8437 -0.4671
vn -0.6477 0.6810 -0.3416
vn 0.0654 0.9367 -0.3440
vn 0.3415 -0.7050 0.6216
vn 0.5297 -0.6781 0.5096
vn 0.6631 -0.7475 -0.0399
vn -0.3078 -0.9078 0.2848
vn 0.1188 -0.6702 -0.7326
vn 0.0557 -0.9040 -0.4239
vn 0.9068 -0.3495 -0.2356
vn 0.0882 -0.3545 0.9309
vn 0.2849 0.1718 0.9430
vn -0.7850 -0.1422 0.6030
vn -0.7909 0.0744 0.6075
vn -0.6535 -0.3267 0.6828
vn -0.8516 -0.1422 -0.5045
vn -0.8603 -0.0079 -0.5097
vn -0.8733 -0.3990 -0.2796
vn 0.1573 0.1349 -0.9783
vn -0.0479 -0.4130 -0.9095
vn 0.8538 0.1504 0.4984
vn 0.8733 0.3990 0.2796
vn 0.8983 -0.0353 0.4380
vn -0.0238 0.4179 0.9082
vn -0.8836 0.3682 0.2894
vn -0.5772 0.4198 -0.7004
vn 0.7896 0.1457 -0.5961
vn 0.6054 0.2865 -0.7426
vn 0.8567 -0.1993 -0.4757
vn 0.3476 0.9310 0.1113
vn -0.0103 0.9191 0.3938
vn -0.6646 0.7359 0.1296
vn -0.5149 0.6658 -0.5399
vn 0.2936 0.8855 -0.3602
vn 0.2433 -0.7758 0.5823
vn 0.1596 -0.9103 0.3820
vn -0.5126 -0.7631 0.3937
vn -0.2750 -0.9379 0.2112
vn -0.5561 -0.7631 -0.3294
vn -0.3682 -0.9038 -0.2181
vn 0.4767 -0.6858 -0.5499
vn 0.1685 -0.7717 -0.6133
vn 0.9299 -0.3453 0.1266
vn 0.9841 -0.1676 -0.0592
vn 0.9722 0.2268 -0.0585
vn 0.0196 -0.3320 0.9431
vn 0.3797 -0.1724 0.9089
vn 0.3742 0.2409 0.8955
vn 0.6517 -0.3237 0.6859
vn -0.9017 -0.3129 0.2983
vn -0.7821 -0.1658 0.6007
vn -0.7818 0.1678 0.6005
vn -0.5063 -0.3252 0.7987
vn -0.5984 -0.3252 -0.7322
vn -0.8485 -0.1658 -0.5026
vn -0.8369 0.2319 -0.4958
vn -0.9310 -0.3129 -0.1880
vn 0.6131 -0.3478 -0.7094
vn 0.2680 -0.1724 -0.9479
vn 0.2641 0.2409 -0.9339
vn -0.0936 -0.3320 -0.9386
vn 0.5984 0.3252 0.7322
vn 0.8485 0.1658 0.5026
vn 0.9310 0.3129 0.1880
vn 0.8369 -0.2319 0.4958
vn -0.6131 0.3478 0.7094
vn -0.2680 0.1724 0.9479
vn 0.0936 0.3320 0.9386
vn -0.2641 -0.2409 0.9339
vn -0.9299 0.3453 -0.1266
vn -0.9841 0.1676 0.0592
vn -0.9722 -0.2268 0.0585
vn -0.0196 0.3320 -0.9431
vn -0.3797 0.1724 -0.9089
vn -0.6517 0.3237 -0.6859
vn -0.3742 -0.2409 -0.8955
vn 0.9017 0.3129 -0.2983
vn 0.7821 0.1658 -0.6007
vn 0.5063 0.3252 -0.7987
vn 0.7818 -0.1678 -0.6005
vn 0.5561 0.7631 0.3294
vn 0.3682 0.9038 0.2181
vn -0.4767 0.6858 0.5499
vn -0.1685 0.7717 0.6133
vn -0.6631 0.7475 0.0399
vn -0.2433 0.7758 -0.5823
vn -0.1596 0.9103 -0.3820
vn 0.5126 0.7631 -0.3937
vn 0.2750 0.9379 -0.2112
usemtl yellow.010
s off
f 68//55 69//55 67//55
f 67//56 72//56 68//56
f 70//57 67//57 69//57
f 71//58 67//58 70//58
f 72//59 67//59 71//59
f 73//60 69//60 68//60
f 70//61 69//61 77//61
f 76//62 77//62 69//62
f 71//63 77//63 78//63
f 77//64 71//64 70//64
f 74//65 72//65 71//65
f 75//66 73//66 68//66
f 73//67 76//67 69//67
f 78//68 74//68 71//68
f 68//69 74//69 75//69
f 74//70 68//70 72//70
f 76//71 73//71 75//71
f 78//72 76//72 74//72
f 76//73 78//73 77//73
f 76//74 75//74 74//74
f 81//75 79//75 91//75
f 80//76 91//76 79//76
f 79//77 84//77 80//77
f 82//78 79//78 81//78
f 83//58 79//58 82//58
f 84//79 83//79 92//79
f 84//80 79//80 83//80
f 93//81 80//81 84//81
f 94//82 81//82 91//82
f 85//83 94//83 91//83
f 82//84 94//84 95//84
f 86//85 95//85 94//85
f 94//86 82//86 81//86
f 83//87 95//87 96//87
f 87//88 96//88 95//88
f 95//89 83//89 82//89
f 88//90 92//90 96//90
f 96//91 92//91 83//91
f 91//92 93//92 85//92
f 89//93 85//93 93//93
f 93//94 91//94 80//94
f 85//95 86//95 94//95
f 86//96 87//96 95//96
f 87//97 88//97 96//97
f 93//98 92//98 89//98
f 88//99 89//99 92//99
f 92//100 93//100 84//100
f 90//101 85//101 89//101
f 90//102 86//102 85//102
f 87//103 86//103 90//103
f 90//104 88//104 87//104
f 90//105 89//105 88//105
f 99//106 98//106 109//106
f 99//107 97//107 98//107
f 98//77 97//77 102//77
f 100//108 99//108 110//108
f 100//109 97//109 99//109
f 101//110 100//110 111//110
f 101//111 97//111 100//111
f 112//112 102//112 97//112
f 97//113 101//113 112//113
f 114//114 98//114 102//114
f 102//115 113//115 114//115
f 107//116 114//116 113//116
f 116//117 99//117 109//117
f 109//118 115//118 116//118
f 103//119 116//119 115//119
f 115//120 109//120 98//120
f 118//121 100//121 110//121
f 110//122 117//122 118//122
f 104//123 118//123 117//123
f 117//124 110//124 99//124
f 120//125 101//125 111//125
f 111//126 119//126 120//126
f 105//127 120//127 119//127
f 119//128 111//128 100//128
f 122//129 102//129 112//129
f 112//130 121//130 122//130
f 106//131 122//131 121//131
f 121//132 112//132 101//132
f 123//133 103//133 115//133
f 115//134 114//134 123//134
f 107//135 123//135 114//135
f 114//136 115//136 98//136
f 124//137 104//137 117//137
f 117//138 116//138 124//138
f 103//139 124//139 116//139
f 116//140 117//140 99//140
f 104//141 105//141 119//141
f 119//142 118//142 104//142
f 118//143 119//143 100//143
f 125//144 106//144 121//144
f 121//145 120//145 125//145
f 105//146 125//146 120//146
f 120//147 121//147 101//147
f 126//148 107//148 113//148
f 113//149 122//149 126//149
f 106//150 126//150 122//150
f 122//151 113//151 102//151
f 123//152 107//152 103//152
f 108//153 103//153 107//153
f 108//154 104//154 124//154
f 124//155 103//155 108//155
f 104//156 108//156 105//156
f 125//157 105//157 106//157
f 108//158 106//158 105//158
f 126//159 106//159 107//159
f 108//160 107//160 106//160
