# Blender v2.78 (sub 0) OBJ File: ''
# www.blender.org
mtllib tree1.mtl
o Cylinder_Cylinder.006
v -0.047418 -0.148801 -1.617884
v 0.642007 -0.148801 -1.219844
v 0.642007 -0.148801 -0.423764
v -0.047418 -0.148801 -0.025724
v -0.736844 -0.148801 -0.423764
v -0.736844 -0.148801 -1.219844
v -0.047418 8.811145 -1.067082
v 0.164999 8.811145 -0.944443
v 0.164999 8.811145 -0.699165
v -0.047418 8.811145 -0.576526
v -0.259835 8.811145 -0.699165
v -0.259836 8.811145 -0.944443
v -0.047418 -0.148801 -0.821804
v -0.047418 8.811145 -0.821804
v 0.229451 3.593117 -1.082144
v -0.221470 3.593117 -1.342483
v 0.229451 3.593117 -0.561464
v -0.221470 3.593117 -0.301125
v -0.672392 3.593117 -0.561464
v -0.672392 3.593117 -1.082143
vn 0.0000 -1.0000 0.0000
vn 0.0000 1.0000 -0.0000
vn 0.4981 0.0867 -0.8628
vn 0.4998 0.0290 -0.8657
vn 0.9940 0.1096 -0.0000
vn 0.9999 0.0124 -0.0000
vn 0.4981 0.0867 0.8628
vn 0.4998 0.0290 0.8657
vn -0.4996 0.0404 0.8653
vn -0.4990 0.0623 0.8643
vn -0.9999 0.0172 0.0000
vn -0.9969 0.0788 0.0000
vn -0.4990 0.0623 -0.8643
vn -0.4996 0.0404 -0.8653
usemtl brown.002
s off
f 13//1 1//1 2//1
f 14//2 8//2 7//2
f 13//1 2//1 3//1
f 14//2 9//2 8//2
f 13//1 3//1 4//1
f 14//2 10//2 9//2
f 13//1 4//1 5//1
f 14//2 11//2 10//2
f 13//1 5//1 6//1
f 14//2 12//2 11//2
f 6//1 1//1 13//1
f 14//2 7//2 12//2
f 1//3 16//3 15//3 2//3
f 16//4 7//4 8//4 15//4
f 2//5 15//5 17//5 3//5
f 15//6 8//6 9//6 17//6
f 3//7 17//7 18//7 4//7
f 17//8 9//8 10//8 18//8
f 4//9 18//9 19//9 5//9
f 18//10 10//10 11//10 19//10
f 5//11 19//11 20//11 6//11
f 19//12 11//12 12//12 20//12
f 7//13 16//13 20//13 12//13
f 16//14 1//14 6//14 20//14
o Icosphere_Icosphere.014
v 0.686654 5.320550 -0.173690
v 2.567583 6.757445 0.164893
v -0.739183 6.217009 1.523471
v -2.345720 6.217045 -0.687649
v -2.609099 9.956843 -1.540191
v 0.176558 10.427737 -3.136385
v 2.304204 10.497244 -0.687649
v 1.523387 7.402810 1.938324
v 1.578223 6.286557 -2.552730
v -2.122542 6.751505 0.839381
v -0.739183 6.217009 -2.898768
v -2.122542 6.751505 -2.214679
v 3.167365 8.520760 -0.687649
v -1.005944 8.193570 2.344433
v -3.208881 8.193529 -0.687649
v -1.005944 8.193570 -3.719731
v 1.999519 9.311481 -2.967690
v 2.081027 9.962784 0.839381
v 0.697667 10.497280 1.523471
v -1.619738 10.427732 1.177432
v -0.728170 11.393739 -1.201607
vn 0.2728 -0.7369 0.6185
vn 0.4534 -0.7179 0.5282
vn 0.6147 -0.7839 -0.0879
vn -0.4835 -0.8018 0.3513
vn -0.3112 -0.9231 0.2261
vn -0.4835 -0.8018 -0.3513
vn -0.2503 -0.9509 -0.1819
vn 0.0801 -0.9337 -0.3491
vn 0.8750 -0.4167 -0.2463
vn 0.0296 -0.3800 0.9245
vn 0.2120 0.1852 0.9596
vn -0.8838 -0.3860 0.2643
vn -0.8089 0.0130 0.5877
vn -0.8061 0.0845 0.5857
vn -0.5244 -0.3860 0.7589
vn -0.5244 -0.3860 -0.7589
vn -0.8089 0.0130 -0.5877
vn -0.8090 -0.0090 -0.5878
vn -0.8838 -0.3860 -0.2643
vn 0.2984 -0.1704 -0.9391
vn 0.1850 0.1555 -0.9704
vn 0.1483 -0.3622 -0.9202
vn 0.5043 0.2456 0.8279
vn 0.8363 0.0521 0.5458
vn 0.8838 0.3860 0.2643
vn 0.8545 -0.0403 0.5178
vn -0.1461 0.4262 0.8928
vn -0.8750 0.4167 0.2463
vn -0.4992 0.4565 -0.7365
vn 0.8701 0.3800 -0.3139
vn 0.8467 -0.1863 -0.4983
vn 0.4835 0.8018 0.3513
vn 0.2503 0.9509 0.1819
vn -0.0801 0.9337 0.3491
vn -0.6147 0.7839 0.0879
vn -0.4385 0.7052 -0.5571
vn 0.4959 0.7415 -0.4519
vn 0.3169 0.8995 -0.3009
usemtl yellow
s off
f 23//15 21//15 28//15
f 22//16 28//16 21//16
f 21//17 29//17 22//17
f 24//18 23//18 30//18
f 24//19 21//19 23//19
f 31//20 24//20 32//20
f 31//21 21//21 24//21
f 29//22 21//22 31//22
f 33//23 22//23 29//23
f 34//24 23//24 28//24
f 39//25 34//25 28//25
f 35//26 24//26 30//26
f 30//27 34//27 35//27
f 40//28 35//28 34//28
f 34//29 30//29 23//29
f 36//30 31//30 32//30
f 32//31 35//31 36//31
f 25//32 36//32 35//32
f 35//33 32//33 24//33
f 29//34 36//34 37//34
f 26//35 37//35 36//35
f 36//36 29//36 31//36
f 38//37 39//37 28//37
f 28//38 33//38 38//38
f 27//39 38//39 33//39
f 33//40 28//40 22//40
f 39//41 40//41 34//41
f 40//42 25//42 35//42
f 25//43 26//43 36//43
f 37//44 27//44 33//44
f 37//45 33//45 29//45
f 38//46 27//46 39//46
f 41//47 39//47 27//47
f 41//48 40//48 39//48
f 25//49 40//49 41//49
f 41//50 26//50 25//50
f 37//51 26//51 27//51
f 41//52 27//52 26//52
