# Blender v2.78 (sub 0) OBJ File: 'tree1.obj'
# www.blender.org
mtllib tree.mtl
o Cylinder_Cylinder.006
v 0.378129 0.233717 3.285225
v 0.779572 -0.453521 3.268144
v 1.173811 0.238042 3.260454
v 0.099015 0.293259 -5.670176
v 0.554982 0.295738 -5.684369
v 0.329063 -0.100563 -5.679963
v 0.772369 0.925279 3.277535
v 0.324935 0.689560 -5.674582
v -0.023314 0.920954 3.302306
v -0.131032 0.687081 -5.660387
v -0.417554 0.229391 3.309995
v -0.356952 0.290780 -5.655980
v -0.016111 -0.457846 3.292914
v -0.126906 -0.103043 -5.665768
v 0.373925 -0.278749 -0.461869
v 0.631779 0.173570 -0.466898
v 0.369214 0.623061 -0.455726
v -0.151205 0.620232 -0.439525
v -0.409060 0.167913 -0.434496
v -0.146495 -0.281577 -0.445668
vn 0.0312 -0.0066 0.9995
vn -0.0312 0.0066 -0.9995
vn -0.0311 0.0066 -0.9995
vn 0.8622 -0.4928 -0.1169
vn 0.8684 -0.4953 -0.0244
vn 0.8544 0.5024 -0.1329
vn 0.8635 0.5044 -0.0009
vn -0.0079 0.9968 -0.0798
vn -0.0050 0.9999 0.0128
vn -0.8688 0.4951 -0.0101
vn -0.8687 0.4953 0.0030
vn -0.8634 -0.5045 0.0063
vn -0.8635 -0.5039 -0.0205
vn 0.0044 -0.9994 -0.0342
vn 0.0040 -0.9989 -0.0472
usemtl brown.002
s 1
f 1//1 2//1 3//1
f 4//2 5//3 6//2
f 1//1 3//1 7//1
f 4//2 8//2 5//3
f 1//1 7//1 9//1
f 4//2 10//2 8//2
f 1//1 9//1 11//1
f 4//2 12//2 10//2
f 1//1 11//1 13//1
f 4//2 14//2 12//2
f 13//1 2//1 1//1
f 4//2 6//2 14//2
f 2//4 15//4 16//4 3//4
f 15//5 6//5 5//5 16//5
f 3//6 16//6 17//6 7//6
f 16//7 5//7 8//7 17//7
f 7//8 17//8 18//8 9//8
f 17//9 8//9 10//9 18//9
f 9//10 18//10 19//10 11//10
f 18//11 10//11 12//11 19//11
f 11//12 19//12 20//12 13//12
f 19//13 12//13 14//13 20//13
f 6//14 15//14 20//14 14//14
f 15//15 2//15 13//15 20//15
