# Blender v2.78 (sub 0) OBJ File: ''
# www.blender.org
mtllib papboat.mtl
o Cube
v -0.004568 0.034279 -2.098506
v 1.000000 0.034279 0.009901
v 0.008081 0.034279 2.098506
v -1.000000 0.034279 -0.009901
v 0.001171 2.034279 0.000000
v 1.000000 0.034279 0.009901
v -1.000000 0.034279 -0.009901
v -1.584311 0.603831 -0.005550
v 1.523812 0.720432 0.009901
v -0.030249 1.245674 -2.964730
v -0.030249 1.245674 3.075627
v -0.005555 0.007643 -2.126188
v 1.124046 0.034279 0.009901
v 0.007781 -0.013835 2.105208
v 1.647859 0.720432 0.009901
v -0.031236 1.247411 -3.024359
v -0.030549 1.243175 3.116422
v -1.071982 -0.018993 -0.010308
v -1.656293 0.550559 -0.005957
vn 0.0000 0.0000 1.0000
vn 0.8236 0.4094 -0.3924
vn 0.8227 0.4128 0.3907
vn -0.8229 0.4100 0.3934
vn -0.8220 0.4134 -0.3918
vn 0.0000 -1.0000 0.0000
vn 0.6446 -0.6981 0.3117
vn -0.5660 0.8164 0.1145
vn 0.0642 0.9889 -0.1343
vn -0.9996 -0.0112 -0.0246
vn 0.7461 -0.5548 -0.3681
vn 0.0554 0.9881 0.1432
vn -0.1887 -0.9768 0.1010
vn 0.7356 -0.5615 0.3790
vn 0.7347 -0.5609 -0.3815
vn 0.7944 -0.3455 -0.4996
vn 0.7902 -0.3693 0.4891
vn 0.3473 0.9192 0.1856
vn 0.9997 0.0039 -0.0237
vn -0.6560 -0.6756 0.3365
vn -0.6577 -0.6722 -0.3400
vn -0.7741 -0.3818 -0.5049
vn -0.7644 -0.4181 0.4908
vn -0.5245 0.8467 -0.0893
vn -0.7473 0.5705 -0.3408
vn -0.8147 0.3383 -0.4710
vn 0.8443 0.3523 -0.4037
vn 0.6224 0.6420 -0.4477
vn 0.6204 0.6329 0.4631
vn 0.8581 0.3106 0.4090
vn -0.7433 0.5675 0.3542
vn -0.8124 0.3276 0.4823
usemtl Material
s off
f 1//1 2//1 6//1
f 3//1 4//1 7//1
f 1//2 5//2 2//2
f 2//3 5//3 3//3
f 3//4 5//4 4//4
f 5//5 1//5 4//5
f 1//6 6//6 3//6 7//6
f 2//1 3//1 6//1
f 4//1 1//1 7//1
f 1//7 4//7 18//7 12//7
f 11//8 8//8 19//8 17//8
f 9//9 11//9 17//9 15//9
f 11//10 3//10 14//10 17//10
f 4//11 3//11 14//11 18//11
f 9//12 15//12 16//12 10//12
f 1//13 12//13 13//13 2//13
f 14//14 13//14 15//14
f 12//15 15//15 13//15
f 12//16 16//16 15//16
f 14//17 15//17 17//17
f 3//18 14//18 13//18 2//18
f 10//19 1//19 12//19 16//19
f 18//20 14//20 19//20
f 12//21 18//21 19//21
f 12//22 19//22 16//22
f 19//23 14//23 17//23
f 8//24 10//24 16//24 19//24
f 9//25 2//25 14//25
f 9//26 14//26 11//26
f 11//27 3//27 4//27
f 7//28 8//28 11//28
f 8//29 4//29 10//29
f 1//30 10//30 7//30
f 2//31 9//31 1//31
f 1//32 9//32 10//32
