# Blender v2.78 (sub 0) OBJ File: 'tree1.obj'
# www.blender.org
mtllib tree02.mtl
o Cylinder_Cylinder.006
v -4.344005 0.233717 -0.145014
v -4.349986 -0.453521 0.256747
v -4.364929 0.238042 0.650779
v 4.612656 0.293259 0.090165
v 4.600665 0.295738 0.546196
v 4.609229 -0.100563 0.320395
v -4.358949 0.925279 0.249017
v 4.604093 0.689560 0.315966
v -4.338024 0.920954 -0.546775
v 4.616083 0.687081 -0.140065
v -4.323081 0.229391 -0.940808
v 4.624647 0.290780 -0.365865
v -4.329062 -0.457846 -0.539046
v 4.621220 -0.103043 -0.135637
v -0.602843 -0.278749 0.065786
v -0.612617 0.173570 0.323503
v -0.608705 0.623061 0.060729
v -0.595019 0.620232 -0.459762
v -0.585246 0.167913 -0.717480
v -0.589157 -0.281577 -0.454707
vn -0.9996 -0.0066 -0.0262
vn 0.9996 0.0066 0.0262
vn 0.0672 -0.4928 0.8675
vn -0.0255 -0.4953 0.8683
vn 0.0837 0.5024 0.8606
vn -0.0486 0.5044 0.8621
vn 0.0802 0.9968 -0.0033
vn -0.0125 0.9999 -0.0058
vn 0.0599 0.4951 -0.8667
vn 0.0469 0.4953 -0.8675
vn 0.0432 -0.5045 -0.8623
vn 0.0700 -0.5039 -0.8609
vn 0.0339 -0.9994 0.0063
vn 0.0469 -0.9989 0.0067
usemtl brown.002
s 1
f 1//1 2//1 3//1
f 4//2 5//2 6//2
f 1//1 3//1 7//1
f 4//2 8//2 5//2
f 1//1 7//1 9//1
f 4//2 10//2 8//2
f 1//1 9//1 11//1
f 4//2 12//2 10//2
f 1//1 11//1 13//1
f 4//2 14//2 12//2
f 13//1 2//1 1//1
f 4//2 6//2 14//2
f 2//3 15//3 16//3 3//3
f 15//4 6//4 5//4 16//4
f 3//5 16//5 17//5 7//5
f 16//6 5//6 8//6 17//6
f 7//7 17//7 18//7 9//7
f 17//8 8//8 10//8 18//8
f 9//9 18//9 19//9 11//9
f 18//10 10//10 12//10 19//10
f 11//11 19//11 20//11 13//11
f 19//12 12//12 14//12 20//12
f 6//13 15//13 20//13 14//13
f 15//14 2//14 13//14 20//14
